<?xml version="1.0" encoding="UTF-8" standalone="no"?>
<!DOCTYPE svg PUBLIC "-//W3C//DTD SVG 1.1//EN" "http://www.w3.org/Graphics/SVG/1.1/DTD/svg11.dtd">
<svg width="100%" height="100%" viewBox="0 0 16 16" version="1.1" xmlns="http://www.w3.org/2000/svg" xmlns:xlink="http://www.w3.org/1999/xlink" xml:space="preserve" xmlns:serif="http://www.serif.com/" style="fill-rule:evenodd;clip-rule:evenodd;stroke-linejoin:round;stroke-miterlimit:2;">
    <g>
        <g transform="matrix(0.713057,0,0,0.713057,0.512902,1.93902)">
            <circle cx="10.5" cy="8.5" r="4.5" style="fill:rgb(204,255,102);"/>
            <path d="M10.5,4C12.984,4 15,6.016 15,8.5C15,10.984 12.984,13 10.5,13C8.016,13 6,10.984 6,8.5C6,6.016 8.016,4 10.5,4ZM10.5,4.491C12.713,4.491 14.509,6.287 14.509,8.5C14.509,10.713 12.713,12.509 10.5,12.509C8.287,12.509 6.491,10.713 6.491,8.5C6.491,6.287 8.287,4.491 10.5,4.491Z" style="fill:rgb(0,102,51);"/>
        </g>
        <g transform="matrix(0.555556,0,0,0.555556,7.66667,2.27778)">
            <circle cx="10.5" cy="8.5" r="4.5" style="fill:rgb(255,204,102);"/>
            <path d="M10.5,4C12.984,4 15,6.016 15,8.5C15,10.984 12.984,13 10.5,13C8.016,13 6,10.984 6,8.5C6,6.016 8.016,4 10.5,4ZM10.5,4.63C12.636,4.63 14.37,6.364 14.37,8.5C14.37,10.636 12.636,12.37 10.5,12.37C8.364,12.37 6.63,10.636 6.63,8.5C6.63,6.364 8.364,4.63 10.5,4.63Z" style="fill:rgb(0,51,51);"/>
        </g>
        <g transform="matrix(0.444444,0,0,0.444444,6.37827,-0.291268)">
            <circle cx="10.5" cy="8.5" r="4.5" style="fill:rgb(255,204,102);"/>
            <path d="M10.5,4C12.984,4 15,6.016 15,8.5C15,10.984 12.984,13 10.5,13C8.016,13 6,10.984 6,8.5C6,6.016 8.016,4 10.5,4ZM10.5,4.787C12.549,4.787 14.213,6.451 14.213,8.5C14.213,10.549 12.549,12.213 10.5,12.213C8.451,12.213 6.787,10.549 6.787,8.5C6.787,6.451 8.451,4.787 10.5,4.787Z" style="fill:rgb(0,51,51);"/>
        </g>
        <g transform="matrix(0.555421,0,0,0.555421,0.945095,-2.22168)">
            <circle cx="10.5" cy="8.5" r="4.5" style="fill:rgb(255,204,102);"/>
            <path d="M10.5,4C12.984,4 15,6.016 15,8.5C15,10.984 12.984,13 10.5,13C8.016,13 6,10.984 6,8.5C6,6.016 8.016,4 10.5,4ZM10.5,4.63C12.636,4.63 14.37,6.364 14.37,8.5C14.37,10.636 12.636,12.37 10.5,12.37C8.364,12.37 6.63,10.636 6.63,8.5C6.63,6.364 8.364,4.63 10.5,4.63Z" style="fill:rgb(0,51,51);"/>
        </g>
        <g transform="matrix(0.59117,0,0,0.59117,-3.54702,0.562907)">
            <circle cx="10.5" cy="8.5" r="4.5" style="fill:rgb(255,204,102);"/>
            <path d="M10.5,4C12.984,4 15,6.016 15,8.5C15,10.984 12.984,13 10.5,13C8.016,13 6,10.984 6,8.5C6,6.016 8.016,4 10.5,4ZM10.5,4.592C12.657,4.592 14.408,6.343 14.408,8.5C14.408,10.657 12.657,12.408 10.5,12.408C8.343,12.408 6.592,10.657 6.592,8.5C6.592,6.343 8.343,4.592 10.5,4.592Z" style="fill:rgb(0,51,51);"/>
        </g>
        <g transform="matrix(0.625083,0,0,0.625083,-3.60621,5.74779)">
            <circle cx="10.5" cy="8.5" r="4.5" style="fill:rgb(255,204,102);"/>
            <path d="M10.5,4C12.984,4 15,6.016 15,8.5C15,10.984 12.984,13 10.5,13C8.016,13 6,10.984 6,8.5C6,6.016 8.016,4 10.5,4ZM10.5,4.56C12.675,4.56 14.44,6.325 14.44,8.5C14.44,10.675 12.675,12.44 10.5,12.44C8.325,12.44 6.56,10.675 6.56,8.5C6.56,6.325 8.325,4.56 10.5,4.56Z" style="fill:rgb(0,51,51);"/>
        </g>
        <g transform="matrix(0.59117,0,0,0.59117,6.18607,6.95526)">
            <circle cx="10.5" cy="8.5" r="4.5" style="fill:rgb(255,204,102);"/>
            <path d="M10.5,4C12.984,4 15,6.016 15,8.5C15,10.984 12.984,13 10.5,13C8.016,13 6,10.984 6,8.5C6,6.016 8.016,4 10.5,4ZM10.5,4.592C12.657,4.592 14.408,6.343 14.408,8.5C14.408,10.657 12.657,12.408 10.5,12.408C8.343,12.408 6.592,10.657 6.592,8.5C6.592,6.343 8.343,4.592 10.5,4.592Z" style="fill:rgb(0,51,51);"/>
        </g>
        <g transform="matrix(0.543982,0,0,0.543982,1.85072,8.92824)">
            <circle cx="10.5" cy="8.5" r="4.5" style="fill:rgb(255,204,102);"/>
            <path d="M10.5,4C12.984,4 15,6.016 15,8.5C15,10.984 12.984,13 10.5,13C8.016,13 6,10.984 6,8.5C6,6.016 8.016,4 10.5,4ZM10.5,4.643C12.629,4.643 14.357,6.371 14.357,8.5C14.357,10.629 12.629,12.357 10.5,12.357C8.371,12.357 6.643,10.629 6.643,8.5C6.643,6.371 8.371,4.643 10.5,4.643Z" style="fill:rgb(0,51,51);"/>
        </g>
    </g>
    <g>
        <g transform="matrix(1,0,0,1,-0.485984,-0.667424)">
            <circle cx="9.669" cy="7.624" r="0.624" style="fill:white;"/>
        </g>
        <g transform="matrix(0.801206,0,0,0.801206,6.81412,0.34819)">
            <circle cx="9.669" cy="7.624" r="0.624" style="fill:white;"/>
        </g>
        <g transform="matrix(0.801206,0,0,0.801206,5.60215,5.08451)">
            <circle cx="9.669" cy="7.624" r="0.624" style="fill:white;"/>
        </g>
        <g transform="matrix(0.721086,0,0,0.721086,1.47782,7.60448)">
            <circle cx="9.669" cy="7.624" r="0.624" style="fill:white;"/>
        </g>
        <g transform="matrix(0.721086,0,0,0.721086,-3.34153,-0.820972)">
            <circle cx="9.669" cy="7.624" r="0.624" style="fill:white;"/>
        </g>
        <g transform="matrix(0.721086,0,0,0.721086,0.690958,-3.90122)">
            <circle cx="9.669" cy="7.624" r="0.624" style="fill:white;"/>
        </g>
        <g transform="matrix(0.801206,0,0,0.801206,-3.68503,4.0242)">
            <circle cx="9.669" cy="7.624" r="0.624" style="fill:white;"/>
        </g>
        <g transform="matrix(0.482098,0,0,0.482098,7.08082,-0.970943)">
            <circle cx="9.669" cy="7.624" r="0.624" style="fill:white;"/>
        </g>
    </g>
</svg>
