<?xml version="1.0" encoding="UTF-8" standalone="no"?>
<!DOCTYPE svg PUBLIC "-//W3C//DTD SVG 1.1//EN" "http://www.w3.org/Graphics/SVG/1.1/DTD/svg11.dtd">
<svg width="100%" height="100%" viewBox="0 0 600 600" version="1.1" xmlns="http://www.w3.org/2000/svg" xmlns:xlink="http://www.w3.org/1999/xlink" xml:space="preserve" xmlns:serif="http://www.serif.com/" style="fill-rule:evenodd;clip-rule:evenodd;stroke-linecap:round;stroke-linejoin:round;stroke-miterlimit:1.5;">
    <g transform="matrix(1,0,0,1,82,-50)">
        <path d="M80,506L80,59" style="fill:none;stroke:black;stroke-width:2px;"/>
        <path d="M76,65C78.621,62.612 80,59 80,59" style="fill:none;stroke:black;stroke-width:2px;"/>
        <g transform="matrix(-1,0,0,1,160,0)">
            <path d="M76,65C78.621,62.612 80,59 80,59" style="fill:none;stroke:black;stroke-width:2px;"/>
        </g>
    </g>
    <g transform="matrix(6.12323e-17,1,-1,6.12323e-17,515.5,317.5)">
        <path d="M80,506L80,59" style="fill:none;stroke:black;stroke-width:2px;"/>
        <path d="M76,65C78.621,62.612 80,59 80,59" style="fill:none;stroke:black;stroke-width:2px;"/>
        <g transform="matrix(-1,0,0,1,160,0)">
            <path d="M76,65C78.621,62.612 80,59 80,59" style="fill:none;stroke:black;stroke-width:2px;"/>
        </g>
    </g>
    <g transform="matrix(1,0,0,1,-7.02919,-28.3007)">
        <text x="180.422px" y="467.823px" style="font-family:'Euclid', serif;font-size:48px;">0</text>
    </g>
    <g transform="matrix(1,0,0,1,-29,-45)">
        <path d="M90,442.5C90,442.5 404.42,391.352 460.5,139" style="fill:none;stroke:rgb(0,153,102);stroke-width:5px;"/>
    </g>
    <g transform="matrix(1.7149,0,0,1.7149,-99.3433,-138.407)">
        <circle cx="93.5" cy="312.5" r="3.5"/>
    </g>
    <g transform="matrix(1,0,0,1,-39.9364,-27.4725)">
        <text x="81.629px" y="461.932px" style="font-family:'Euclid-Italic', 'Euclid', serif;font-style:italic;font-size:48px;">x</text>
    </g>
    <g transform="matrix(1,0,0,1,68.5649,440.79)">
        <text x="0px" y="0px" style="font-family:'Euclid', serif;font-size:24px;">0</text>
    </g>
    <g transform="matrix(1.63672,0,0,1.63672,-349.683,-141.674)">
        <g transform="matrix(1,0,0,1,42,5)">
            <text x="342.375px" y="203.714px" style="font-family:'Euclid-Italic', 'Euclid', serif;font-style:italic;font-size:48px;fill:rgb(0,153,102);">h</text>
        </g>
        <g transform="matrix(1,0,0,1,18.902,54.8526)">
            <text x="389.094px" y="159.406px" style="font-family:'Euclid-Italic', 'Euclid', serif;font-style:italic;font-size:36px;fill:rgb(0,153,102);">s</text>
        </g>
    </g>
</svg>
